<svg width="18" height="18" viewBox="0 0 18 18" fill="none" xmlns="http://www.w3.org/2000/svg">
<g clip-path="url(#clip0_2001_4614)">
<path d="M17.5749 14.8H0.308347C0.138072 14.8 0 14.6619 0 14.4917V3.39168C0 3.2214 0.138072 3.08333 0.308347 3.08333H17.575C17.7453 3.08333 17.8833 3.2214 17.8833 3.39168V14.4917C17.8833 14.662 17.7452 14.8 17.5749 14.8Z" fill="#F5F5F5"/>
<path d="M17.8833 3.98465H0V3.39168C0 3.2214 0.138072 3.08333 0.308347 3.08333H17.575C17.7453 3.08333 17.8833 3.2214 17.8833 3.39168L17.8833 3.98465Z" fill="#FF4B55"/>
<path d="M17.8833 6.68843H0V7.58972H17.8833V6.68843Z" fill="#FF4B55"/>
<path d="M17.8833 4.88579H0V5.78708H17.8833V4.88579Z" fill="#FF4B55"/>
<path d="M17.8833 9.3923H0.308347C0.138072 9.3923 0 9.25423 0 9.08395V8.49097H17.8833V9.3923Z" fill="#FF4B55"/>
<path d="M17.8833 12.0964H0V12.9977H17.8833V12.0964Z" fill="#FF4B55"/>
<path d="M17.575 14.8H0.308347C0.138072 14.8 0 14.6619 0 14.4916V13.8987H17.8833V14.4917C17.8833 14.6619 17.7452 14.8 17.575 14.8Z" fill="#FF4B55"/>
<path d="M17.8833 10.2937H0V11.195H17.8833V10.2937Z" fill="#FF4B55"/>
<path d="M8.01664 3.08337H0.308347C0.138072 3.08337 0 3.22141 0 3.39169V9.08395C0 9.25423 0.138072 9.3923 0.308347 9.3923H8.01668C8.18695 9.3923 8.32502 9.25423 8.32502 9.08395V3.39169C8.32499 3.22141 8.18692 3.08337 8.01664 3.08337Z" fill="#41479B"/>
<path d="M0.866097 3.79106L0.934347 3.99574L1.1501 3.99738C1.17804 3.99762 1.1896 4.03325 1.16714 4.04984L0.993585 4.17803L1.05869 4.38372C1.06714 4.41034 1.03679 4.43241 1.01405 4.41613L0.838539 4.29071L0.663024 4.41617C0.640285 4.43241 0.610003 4.41037 0.618385 4.38376L0.683492 4.17806L0.509933 4.04988C0.487474 4.03325 0.499035 3.99766 0.526978 3.99741L0.74273 3.99577L0.81098 3.79109C0.819782 3.76455 0.857225 3.76455 0.866097 3.79106Z" fill="#F5F5F5"/>
<path d="M0.865958 4.86174L0.934208 5.06642L1.14996 5.06806C1.1779 5.06831 1.18946 5.10393 1.167 5.12052L0.993446 5.24871L1.05855 5.4544C1.06701 5.48102 1.03665 5.50309 1.01391 5.48682L0.838399 5.36139L0.662885 5.48685C0.640146 5.5031 0.609863 5.48105 0.618246 5.45444L0.683353 5.24875L0.509794 5.12056C0.487335 5.10393 0.498896 5.06834 0.526839 5.0681L0.742591 5.06646L0.810841 4.86178C0.819643 4.83527 0.857086 4.83527 0.865958 4.86174Z" fill="#F5F5F5"/>
<path d="M0.865958 5.93243L0.934208 6.13711L1.14996 6.13876C1.1779 6.139 1.18946 6.17463 1.167 6.19122L0.993446 6.31941L1.05855 6.5251C1.06701 6.55171 1.03665 6.57379 1.01391 6.55751L0.838399 6.43208L0.662885 6.55755C0.640146 6.57379 0.609863 6.55175 0.618246 6.52513L0.683353 6.31944L0.509794 6.19125C0.487335 6.17463 0.498896 6.13904 0.526839 6.13879L0.742591 6.13715L0.810841 5.93247C0.819643 5.90596 0.857086 5.90596 0.865958 5.93243Z" fill="#F5F5F5"/>
<path d="M0.865958 7.00318L0.934208 7.20786L1.14996 7.2095C1.1779 7.20974 1.18946 7.24537 1.167 7.26196L0.993446 7.39015L1.05855 7.59584C1.06701 7.62246 1.03665 7.64453 1.01391 7.62826L0.838399 7.50283L0.662885 7.62829C0.640146 7.64453 0.609863 7.62249 0.618246 7.59588L0.683353 7.39018L0.509794 7.262C0.487335 7.24537 0.498896 7.20978 0.526839 7.20953L0.742591 7.20789L0.810841 7.00321C0.819643 6.97667 0.857086 6.97667 0.865958 7.00318Z" fill="#F5F5F5"/>
<path d="M0.865958 8.07385L0.934208 8.27853L1.14996 8.28017C1.1779 8.28042 1.18946 8.31604 1.167 8.33264L0.993446 8.46082L1.05855 8.66652C1.06701 8.69313 1.03665 8.71521 1.01391 8.69893L0.838399 8.5735L0.662885 8.69896C0.640146 8.71521 0.609863 8.69317 0.618246 8.66655L0.683353 8.46086L0.509794 8.33267C0.487335 8.31605 0.498896 8.28045 0.526839 8.28021L0.742591 8.27857L0.810841 8.07389C0.819643 8.04731 0.857086 8.04731 0.865958 8.07385Z" fill="#F5F5F5"/>
<path d="M1.69698 4.31598L1.76523 4.52066L1.98098 4.52231C2.00892 4.52255 2.02048 4.55818 1.99802 4.57477L1.82446 4.70295L1.88957 4.90865C1.89802 4.93526 1.86767 4.95734 1.84493 4.94106L1.66942 4.8156L1.4939 4.94106C1.47116 4.9573 1.44088 4.93526 1.44926 4.90865L1.51437 4.70295L1.34081 4.57477C1.31835 4.55814 1.32991 4.52255 1.35786 4.52231L1.57361 4.52066L1.64186 4.31598C1.65063 4.28951 1.68814 4.28951 1.69698 4.31598Z" fill="#F5F5F5"/>
<path d="M1.69698 5.3867L1.76523 5.59138L1.98098 5.59303C2.00892 5.59327 2.02048 5.6289 1.99802 5.64549L1.82446 5.77367L1.88957 5.97937C1.89802 6.00598 1.86767 6.02806 1.84493 6.01178L1.66942 5.88632L1.4939 6.01178C1.47116 6.02802 1.44088 6.00602 1.44926 5.97937L1.51437 5.77367L1.34081 5.64549C1.31835 5.62886 1.32991 5.59327 1.35786 5.59303L1.57361 5.59138L1.64186 5.3867C1.65063 5.36019 1.68814 5.36019 1.69698 5.3867Z" fill="#F5F5F5"/>
<path d="M1.69698 6.4574L1.76523 6.66208L1.98098 6.66372C2.00892 6.66396 2.02048 6.69959 1.99802 6.71618L1.82446 6.84437L1.88957 7.05006C1.89802 7.07668 1.86767 7.09875 1.84493 7.08248L1.66942 6.95701L1.4939 7.08248C1.47116 7.09872 1.44088 7.07668 1.44926 7.05006L1.51437 6.84437L1.34081 6.71618C1.31835 6.69956 1.32991 6.66396 1.35786 6.66372L1.57361 6.66208L1.64186 6.4574C1.65063 6.43089 1.68814 6.43089 1.69698 6.4574Z" fill="#F5F5F5"/>
<path d="M1.69698 7.52809L1.76523 7.73277L1.98098 7.73441C2.00892 7.73465 2.02048 7.77028 1.99802 7.78687L1.82446 7.91506L1.88957 8.12075C1.89802 8.14737 1.86767 8.16944 1.84493 8.15317L1.66942 8.0277L1.4939 8.15317C1.47116 8.16941 1.44088 8.14737 1.44926 8.12075L1.51437 7.91506L1.34081 7.78687C1.31835 7.77025 1.32991 7.73465 1.35786 7.73441L1.57361 7.73277L1.64186 7.52809C1.65063 7.50161 1.68814 7.50161 1.69698 7.52809Z" fill="#F5F5F5"/>
<path d="M2.52806 3.79105L2.59631 3.99573L2.81206 3.99738C2.84001 3.99762 2.85157 4.03325 2.82911 4.04984L2.65555 4.17802L2.72066 4.38372C2.72911 4.41033 2.69876 4.43241 2.67602 4.41613L2.5005 4.29067L2.32499 4.41613C2.30225 4.43237 2.27197 4.41033 2.28035 4.38372L2.34546 4.17802L2.1719 4.04984C2.14944 4.03321 2.161 3.99762 2.18894 3.99738L2.40469 3.99573L2.47294 3.79105C2.48175 3.76454 2.51922 3.76454 2.52806 3.79105Z" fill="#F5F5F5"/>
<path d="M2.52806 4.86175L2.59631 5.06643L2.81206 5.06807C2.84001 5.06831 2.85157 5.10394 2.82911 5.12053L2.65555 5.24872L2.72066 5.45441C2.72911 5.48102 2.69876 5.5031 2.67602 5.48682L2.5005 5.36136L2.32499 5.48682C2.30225 5.50306 2.27197 5.48102 2.28035 5.45441L2.34546 5.24872L2.1719 5.12053C2.14944 5.1039 2.161 5.06831 2.18894 5.06807L2.40469 5.06643L2.47294 4.86175C2.48175 4.83527 2.51922 4.83527 2.52806 4.86175Z" fill="#F5F5F5"/>
<path d="M2.52806 5.93244L2.59631 6.13712L2.81206 6.13876C2.84001 6.13901 2.85157 6.17463 2.82911 6.19122L2.65555 6.31941L2.72066 6.5251C2.72911 6.55172 2.69876 6.57379 2.67602 6.55752L2.5005 6.43205L2.32499 6.55752C2.30225 6.57376 2.27197 6.55172 2.28035 6.5251L2.34546 6.31941L2.1719 6.19122C2.14944 6.1746 2.161 6.13901 2.18894 6.13876L2.40469 6.13712L2.47294 5.93244C2.48175 5.90596 2.51922 5.90596 2.52806 5.93244Z" fill="#F5F5F5"/>
<path d="M2.52806 7.00316L2.59631 7.20784L2.81206 7.20948C2.84001 7.20973 2.85157 7.24535 2.82911 7.26194L2.65555 7.39013L2.72066 7.59582C2.72911 7.62244 2.69876 7.64451 2.67602 7.62824L2.5005 7.50277L2.32499 7.62824C2.30225 7.64448 2.27197 7.62244 2.28035 7.59582L2.34546 7.39013L2.1719 7.26194C2.14944 7.24532 2.161 7.20973 2.18894 7.20948L2.40469 7.20784L2.47294 7.00316C2.48175 6.97665 2.51922 6.97665 2.52806 7.00316Z" fill="#F5F5F5"/>
<path d="M2.52806 8.07386L2.59631 8.27854L2.81206 8.28018C2.84001 8.28042 2.85157 8.31605 2.82911 8.33264L2.65555 8.46083L2.72066 8.66652C2.72911 8.69314 2.69876 8.71521 2.67602 8.69893L2.5005 8.57347L2.32499 8.69893C2.30225 8.71517 2.27197 8.69314 2.28035 8.66652L2.34546 8.46083L2.1719 8.33264C2.14944 8.31601 2.161 8.28042 2.18894 8.28018L2.40469 8.27854L2.47294 8.07386C2.48175 8.04731 2.51922 8.04731 2.52806 8.07386Z" fill="#F5F5F5"/>
<path d="M3.35917 4.31598L3.42742 4.52066L3.64318 4.52231C3.67112 4.52255 3.68268 4.55818 3.66022 4.57477L3.48666 4.70295L3.55177 4.90865C3.56022 4.93526 3.52987 4.95734 3.50713 4.94106L3.33161 4.8156L3.1561 4.94106C3.13336 4.9573 3.10308 4.93526 3.11146 4.90865L3.17657 4.70295L3.00301 4.57477C2.98055 4.55814 2.99211 4.52255 3.02005 4.52231L3.23581 4.52066L3.30406 4.31598C3.31282 4.28951 3.35034 4.28951 3.35917 4.31598Z" fill="#F5F5F5"/>
<path d="M3.35917 5.3867L3.42742 5.59138L3.64318 5.59303C3.67112 5.59327 3.68268 5.6289 3.66022 5.64549L3.48666 5.77367L3.55177 5.97937C3.56022 6.00598 3.52987 6.02806 3.50713 6.01178L3.33161 5.88632L3.1561 6.01178C3.13336 6.02802 3.10308 6.00602 3.11146 5.97937L3.17657 5.77367L3.00301 5.64549C2.98055 5.62886 2.99211 5.59327 3.02005 5.59303L3.23581 5.59138L3.30406 5.3867C3.31282 5.36019 3.35034 5.36019 3.35917 5.3867Z" fill="#F5F5F5"/>
<path d="M3.35917 6.4574L3.42742 6.66208L3.64318 6.66372C3.67112 6.66396 3.68268 6.69959 3.66022 6.71618L3.48666 6.84437L3.55177 7.05006C3.56022 7.07668 3.52987 7.09875 3.50713 7.08248L3.33161 6.95701L3.1561 7.08248C3.13336 7.09872 3.10308 7.07668 3.11146 7.05006L3.17657 6.84437L3.00301 6.71618C2.98055 6.69956 2.99211 6.66396 3.02005 6.66372L3.23581 6.66208L3.30406 6.4574C3.31282 6.43089 3.35034 6.43089 3.35917 6.4574Z" fill="#F5F5F5"/>
<path d="M3.35917 7.52809L3.42742 7.73277L3.64318 7.73441C3.67112 7.73465 3.68268 7.77028 3.66022 7.78687L3.48666 7.91506L3.55177 8.12075C3.56022 8.14737 3.52987 8.16944 3.50713 8.15317L3.33161 8.0277L3.1561 8.15317C3.13336 8.16941 3.10308 8.14737 3.11146 8.12075L3.17657 7.91506L3.00301 7.78687C2.98055 7.77025 2.99211 7.73465 3.02005 7.73441L3.23581 7.73277L3.30406 7.52809C3.31282 7.50161 3.35034 7.50161 3.35917 7.52809Z" fill="#F5F5F5"/>
<path d="M4.19019 3.79105L4.25844 3.99573L4.4742 3.99738C4.50214 3.99762 4.5137 4.03325 4.49124 4.04984L4.31768 4.17802L4.38279 4.38372C4.39124 4.41033 4.36089 4.43241 4.33815 4.41613L4.1626 4.29067L3.98709 4.41613C3.96435 4.43237 3.93407 4.41033 3.94245 4.38372L4.00756 4.17802L3.834 4.04984C3.81154 4.03321 3.8231 3.99762 3.85104 3.99738L4.06679 3.99573L4.13504 3.79105C4.14388 3.76454 4.18136 3.76454 4.19019 3.79105Z" fill="#F5F5F5"/>
<path d="M4.19019 4.86175L4.25844 5.06643L4.4742 5.06807C4.50214 5.06831 4.5137 5.10394 4.49124 5.12053L4.31768 5.24872L4.38279 5.45441C4.39124 5.48102 4.36089 5.5031 4.33815 5.48682L4.1626 5.36136L3.98709 5.48682C3.96435 5.50306 3.93407 5.48102 3.94245 5.45441L4.00756 5.24872L3.834 5.12053C3.81154 5.1039 3.8231 5.06831 3.85104 5.06807L4.06679 5.06643L4.13504 4.86175C4.14388 4.83527 4.18136 4.83527 4.19019 4.86175Z" fill="#F5F5F5"/>
<path d="M4.19019 5.93244L4.25844 6.13712L4.4742 6.13876C4.50214 6.13901 4.5137 6.17463 4.49124 6.19122L4.31768 6.31941L4.38279 6.5251C4.39124 6.55172 4.36089 6.57379 4.33815 6.55752L4.1626 6.43205L3.98709 6.55752C3.96435 6.57376 3.93407 6.55172 3.94245 6.5251L4.00756 6.31941L3.834 6.19122C3.81154 6.1746 3.8231 6.13901 3.85104 6.13876L4.06679 6.13712L4.13504 5.93244C4.14388 5.90596 4.18136 5.90596 4.19019 5.93244Z" fill="#F5F5F5"/>
<path d="M4.19019 7.00316L4.25844 7.20784L4.4742 7.20948C4.50214 7.20973 4.5137 7.24535 4.49124 7.26194L4.31768 7.39013L4.38279 7.59582C4.39124 7.62244 4.36089 7.64451 4.33815 7.62824L4.1626 7.50277L3.98709 7.62824C3.96435 7.64448 3.93407 7.62244 3.94245 7.59582L4.00756 7.39013L3.834 7.26194C3.81154 7.24532 3.8231 7.20973 3.85104 7.20948L4.06679 7.20784L4.13504 7.00316C4.14388 6.97665 4.18136 6.97665 4.19019 7.00316Z" fill="#F5F5F5"/>
<path d="M4.19019 8.07386L4.25844 8.27854L4.4742 8.28018C4.50214 8.28042 4.5137 8.31605 4.49124 8.33264L4.31768 8.46083L4.38279 8.66652C4.39124 8.69314 4.36089 8.71521 4.33815 8.69893L4.1626 8.57347L3.98709 8.69893C3.96435 8.71517 3.93407 8.69314 3.94245 8.66652L4.00756 8.46083L3.834 8.33264C3.81154 8.31601 3.8231 8.28042 3.85104 8.28018L4.06679 8.27854L4.13504 8.07386C4.14388 8.04731 4.18136 8.04731 4.19019 8.07386Z" fill="#F5F5F5"/>
<path d="M5.02127 4.31598L5.08952 4.52066L5.30528 4.52231C5.33322 4.52255 5.34478 4.55818 5.32232 4.57477L5.14876 4.70295L5.21387 4.90865C5.22232 4.93526 5.19197 4.95734 5.16923 4.94106L4.99371 4.8156L4.8182 4.94106C4.79546 4.9573 4.76518 4.93526 4.77356 4.90865L4.83867 4.70295L4.66511 4.57477C4.64265 4.55814 4.65421 4.52255 4.68215 4.52231L4.89791 4.52066L4.96616 4.31598C4.97499 4.28951 5.01244 4.28951 5.02127 4.31598Z" fill="#F5F5F5"/>
<path d="M5.02127 5.3867L5.08952 5.59138L5.30528 5.59303C5.33322 5.59327 5.34478 5.6289 5.32232 5.64549L5.14876 5.77367L5.21387 5.97937C5.22232 6.00598 5.19197 6.02806 5.16923 6.01178L4.99371 5.88632L4.8182 6.01178C4.79546 6.02802 4.76518 6.00602 4.77356 5.97937L4.83867 5.77367L4.66511 5.64549C4.64265 5.62886 4.65421 5.59327 4.68215 5.59303L4.89791 5.59138L4.96616 5.3867C4.97499 5.36019 5.01244 5.36019 5.02127 5.3867Z" fill="#F5F5F5"/>
<path d="M5.02127 6.4574L5.08952 6.66208L5.30528 6.66372C5.33322 6.66396 5.34478 6.69959 5.32232 6.71618L5.14876 6.84437L5.21387 7.05006C5.22232 7.07668 5.19197 7.09875 5.16923 7.08248L4.99371 6.95701L4.8182 7.08248C4.79546 7.09872 4.76518 7.07668 4.77356 7.05006L4.83867 6.84437L4.66511 6.71618C4.64265 6.69956 4.65421 6.66396 4.68215 6.66372L4.89791 6.66208L4.96616 6.4574C4.97499 6.43089 5.01244 6.43089 5.02127 6.4574Z" fill="#F5F5F5"/>
<path d="M5.02127 7.52809L5.08952 7.73277L5.30528 7.73441C5.33322 7.73465 5.34478 7.77028 5.32232 7.78687L5.14876 7.91506L5.21387 8.12075C5.22232 8.14737 5.19197 8.16944 5.16923 8.15317L4.99371 8.0277L4.8182 8.15317C4.79546 8.16941 4.76518 8.14737 4.77356 8.12075L4.83867 7.91506L4.66511 7.78687C4.64265 7.77025 4.65421 7.73465 4.68215 7.73441L4.89791 7.73277L4.96616 7.52809C4.97499 7.50161 5.01244 7.50161 5.02127 7.52809Z" fill="#F5F5F5"/>
<path d="M5.85236 3.79105L5.92061 3.99573L6.13636 3.99738C6.1643 3.99762 6.17586 4.03325 6.1534 4.04984L5.97985 4.17802L6.04495 4.38372C6.0534 4.41033 6.02305 4.43241 6.00031 4.41613L5.8248 4.29067L5.64928 4.41613C5.62654 4.43237 5.59626 4.41033 5.60464 4.38372L5.66975 4.17802L5.49619 4.04984C5.47373 4.03321 5.48529 3.99762 5.51324 3.99738L5.72899 3.99573L5.79724 3.79105C5.80601 3.76454 5.84352 3.76454 5.85236 3.79105Z" fill="#F5F5F5"/>
<path d="M5.85236 4.86175L5.92061 5.06643L6.13636 5.06807C6.1643 5.06831 6.17586 5.10394 6.1534 5.12053L5.97985 5.24872L6.04495 5.45441C6.0534 5.48102 6.02305 5.5031 6.00031 5.48682L5.8248 5.36136L5.64928 5.48682C5.62654 5.50306 5.59626 5.48102 5.60464 5.45441L5.66975 5.24872L5.49619 5.12053C5.47373 5.1039 5.48529 5.06831 5.51324 5.06807L5.72899 5.06643L5.79724 4.86175C5.80601 4.83527 5.84352 4.83527 5.85236 4.86175Z" fill="#F5F5F5"/>
<path d="M5.85236 5.93244L5.92061 6.13712L6.13636 6.13876C6.1643 6.13901 6.17586 6.17463 6.1534 6.19122L5.97985 6.31941L6.04495 6.5251C6.0534 6.55172 6.02305 6.57379 6.00031 6.55752L5.8248 6.43205L5.64928 6.55752C5.62654 6.57376 5.59626 6.55172 5.60464 6.5251L5.66975 6.31941L5.49619 6.19122C5.47373 6.1746 5.48529 6.13901 5.51324 6.13876L5.72899 6.13712L5.79724 5.93244C5.80601 5.90596 5.84352 5.90596 5.85236 5.93244Z" fill="#F5F5F5"/>
<path d="M5.85236 7.00316L5.92061 7.20784L6.13636 7.20948C6.1643 7.20973 6.17586 7.24535 6.1534 7.26194L5.97985 7.39013L6.04495 7.59582C6.0534 7.62244 6.02305 7.64451 6.00031 7.62824L5.8248 7.50277L5.64928 7.62824C5.62654 7.64448 5.59626 7.62244 5.60464 7.59582L5.66975 7.39013L5.49619 7.26194C5.47373 7.24532 5.48529 7.20973 5.51324 7.20948L5.72899 7.20784L5.79724 7.00316C5.80601 6.97665 5.84352 6.97665 5.85236 7.00316Z" fill="#F5F5F5"/>
<path d="M5.85236 8.07386L5.92061 8.27854L6.13636 8.28018C6.1643 8.28042 6.17586 8.31605 6.1534 8.33264L5.97985 8.46083L6.04495 8.66652C6.0534 8.69314 6.02305 8.71521 6.00031 8.69893L5.8248 8.57347L5.64928 8.69893C5.62654 8.71517 5.59626 8.69314 5.60464 8.66652L5.66975 8.46083L5.49619 8.33264C5.47373 8.31601 5.48529 8.28042 5.51324 8.28018L5.72899 8.27854L5.79724 8.07386C5.80601 8.04731 5.84352 8.04731 5.85236 8.07386Z" fill="#F5F5F5"/>
<path d="M6.68338 4.31598L6.75163 4.52066L6.96738 4.52231C6.99532 4.52255 7.00688 4.55818 6.98442 4.57477L6.81086 4.70295L6.87597 4.90865C6.88442 4.93526 6.85407 4.95734 6.83133 4.94106L6.65582 4.8156L6.4803 4.94106C6.45756 4.9573 6.42728 4.93526 6.43566 4.90865L6.50077 4.70295L6.32721 4.57477C6.30475 4.55814 6.31631 4.52255 6.34426 4.52231L6.56001 4.52066L6.62826 4.31598C6.63706 4.28951 6.67457 4.28951 6.68338 4.31598Z" fill="#F5F5F5"/>
<path d="M6.68338 5.3867L6.75163 5.59138L6.96738 5.59303C6.99532 5.59327 7.00688 5.6289 6.98442 5.64549L6.81086 5.77367L6.87597 5.97937C6.88442 6.00598 6.85407 6.02806 6.83133 6.01178L6.65582 5.88632L6.4803 6.01178C6.45756 6.02802 6.42728 6.00602 6.43566 5.97937L6.50077 5.77367L6.32721 5.64549C6.30475 5.62886 6.31631 5.59327 6.34426 5.59303L6.56001 5.59138L6.62826 5.3867C6.63706 5.36019 6.67457 5.36019 6.68338 5.3867Z" fill="#F5F5F5"/>
<path d="M6.68338 6.4574L6.75163 6.66208L6.96738 6.66372C6.99532 6.66396 7.00688 6.69959 6.98442 6.71618L6.81086 6.84437L6.87597 7.05006C6.88442 7.07668 6.85407 7.09875 6.83133 7.08248L6.65582 6.95701L6.4803 7.08248C6.45756 7.09872 6.42728 7.07668 6.43566 7.05006L6.50077 6.84437L6.32721 6.71618C6.30475 6.69956 6.31631 6.66396 6.34426 6.66372L6.56001 6.66208L6.62826 6.4574C6.63706 6.43089 6.67457 6.43089 6.68338 6.4574Z" fill="#F5F5F5"/>
<path d="M6.68338 7.52809L6.75163 7.73277L6.96738 7.73441C6.99532 7.73465 7.00688 7.77028 6.98442 7.78687L6.81086 7.91506L6.87597 8.12075C6.88442 8.14737 6.85407 8.16944 6.83133 8.15317L6.65582 8.0277L6.4803 8.15317C6.45756 8.16941 6.42728 8.14737 6.43566 8.12075L6.50077 7.91506L6.32721 7.78687C6.30475 7.77025 6.31631 7.73465 6.34426 7.73441L6.56001 7.73277L6.62826 7.52809C6.63706 7.50161 6.67457 7.50161 6.68338 7.52809Z" fill="#F5F5F5"/>
<path d="M7.51446 3.79105L7.58271 3.99573L7.79846 3.99738C7.8264 3.99762 7.83797 4.03325 7.81551 4.04984L7.64195 4.17802L7.70705 4.38372C7.71551 4.41033 7.68515 4.43241 7.66242 4.41613L7.4869 4.29067L7.31139 4.41613C7.28865 4.43237 7.25836 4.41033 7.26675 4.38372L7.33185 4.17802L7.15829 4.04984C7.13584 4.03321 7.1474 3.99762 7.17534 3.99738L7.39109 3.99573L7.45934 3.79105C7.46814 3.76454 7.50559 3.76454 7.51446 3.79105Z" fill="#F5F5F5"/>
<path d="M7.51446 4.86175L7.58271 5.06643L7.79846 5.06807C7.8264 5.06831 7.83797 5.10394 7.81551 5.12053L7.64195 5.24872L7.70705 5.45441C7.71551 5.48102 7.68515 5.5031 7.66242 5.48682L7.4869 5.36136L7.31139 5.48682C7.28865 5.50306 7.25836 5.48102 7.26675 5.45441L7.33185 5.24872L7.15829 5.12053C7.13584 5.1039 7.1474 5.06831 7.17534 5.06807L7.39109 5.06643L7.45934 4.86175C7.46814 4.83527 7.50559 4.83527 7.51446 4.86175Z" fill="#F5F5F5"/>
<path d="M7.51446 5.93244L7.58271 6.13712L7.79846 6.13876C7.8264 6.13901 7.83797 6.17463 7.81551 6.19122L7.64195 6.31941L7.70705 6.5251C7.71551 6.55172 7.68515 6.57379 7.66242 6.55752L7.4869 6.43205L7.31139 6.55752C7.28865 6.57376 7.25836 6.55172 7.26675 6.5251L7.33185 6.31941L7.15829 6.19122C7.13584 6.1746 7.1474 6.13901 7.17534 6.13876L7.39109 6.13712L7.45934 5.93244C7.46814 5.90596 7.50559 5.90596 7.51446 5.93244Z" fill="#F5F5F5"/>
<path d="M7.51446 7.00316L7.58271 7.20784L7.79846 7.20948C7.8264 7.20973 7.83797 7.24535 7.81551 7.26194L7.64195 7.39013L7.70705 7.59582C7.71551 7.62244 7.68515 7.64451 7.66242 7.62824L7.4869 7.50277L7.31139 7.62824C7.28865 7.64448 7.25836 7.62244 7.26675 7.59582L7.33185 7.39013L7.15829 7.26194C7.13584 7.24532 7.1474 7.20973 7.17534 7.20948L7.39109 7.20784L7.45934 7.00316C7.46814 6.97665 7.50559 6.97665 7.51446 7.00316Z" fill="#F5F5F5"/>
<path d="M7.51446 8.07386L7.58271 8.27854L7.79846 8.28018C7.8264 8.28042 7.83797 8.31605 7.81551 8.33264L7.64195 8.46083L7.70705 8.66652C7.71551 8.69314 7.68515 8.71521 7.66242 8.69893L7.4869 8.57347L7.31139 8.69893C7.28865 8.71517 7.25836 8.69314 7.26675 8.66652L7.33185 8.46083L7.15829 8.33264C7.13584 8.31601 7.1474 8.28042 7.17534 8.28018L7.39109 8.27854L7.45934 8.07386C7.46814 8.04731 7.50559 8.04731 7.51446 8.07386Z" fill="#F5F5F5"/>
</g>
<defs>
<clipPath id="clip0_2001_4614">
<rect width="17.8833" height="17.8833" fill="white"/>
</clipPath>
</defs>
</svg>
